<?xml version="1.0" standalone="no"?>
<!DOCTYPE svg PUBLIC "-//W3C//DTD SVG 20010904//EN"
 "http://www.w3.org/TR/2001/REC-SVG-20010904/DTD/svg10.dtd">
<svg version="1.0" xmlns="http://www.w3.org/2000/svg"
 width="676.000000pt" height="676.000000pt" viewBox="0 0 676.000000 676.000000"
 preserveAspectRatio="xMidYMid meet">
<metadata>
Created by potrace 1.14, written by Peter Selinger 2001-2017
</metadata>
<g transform="translate(0.000000,676.000000) scale(0.100000,-0.100000)"
fill="#000000" stroke="none">
<path d="M2168 6305 c-2 -1 -24 -5 -49 -8 -65 -8 -170 -36 -196 -53 -13 -8
-23 -12 -23 -9 0 8 -152 -87 -199 -124 -73 -58 -191 -186 -191 -206 0 -5 -6
-16 -14 -24 -7 -9 -28 -43 -46 -76 -18 -33 -45 -81 -59 -106 -14 -25 -66 -118
-116 -205 -49 -87 -92 -161 -95 -164 -7 -6 -22 -43 -20 -49 1 -2 -2 -7 -7 -10
-8 -6 -143 -237 -143 -245 0 -2 -17 -33 -38 -67 -21 -35 -44 -77 -52 -94 -8
-16 -17 -32 -20 -35 -5 -4 -27 -42 -140 -245 -13 -22 -31 -56 -42 -75 -11 -19
-27 -48 -37 -65 -22 -36 -56 -96 -84 -150 -12 -22 -24 -42 -27 -45 -7 -7 -57
-97 -78 -140 -9 -19 -20 -37 -23 -40 -3 -3 -25 -41 -50 -85 -24 -44 -52 -93
-61 -110 -70 -121 -115 -247 -133 -370 -7 -54 -8 -222 -1 -234 3 -4 7 -25 10
-48 13 -111 68 -227 301 -633 23 -41 53 -93 65 -115 61 -110 220 -394 238
-425 11 -19 33 -57 48 -85 14 -27 35 -62 46 -77 11 -16 16 -28 12 -28 -3 0 -1
-7 6 -15 17 -21 49 -76 56 -97 4 -10 10 -18 15 -18 5 0 9 -5 9 -11 0 -6 40
-81 89 -168 49 -86 98 -173 110 -194 11 -20 29 -52 39 -70 11 -17 39 -67 63
-111 24 -43 53 -94 65 -115 11 -20 35 -63 53 -96 36 -65 106 -165 143 -205 33
-36 136 -121 183 -152 72 -46 205 -101 275 -115 14 -2 42 -8 63 -13 45 -10
264 -11 1527 -11 830 1 1015 3 1015 11 0 1 14 4 30 6 118 20 315 117 397 197
10 9 21 17 25 18 13 1 115 125 154 188 34 52 83 138 162 281 16 30 33 60 37
65 10 13 60 103 78 140 8 17 23 41 32 55 16 24 63 107 101 178 9 18 23 39 29
47 7 8 9 15 4 15 -5 0 -4 4 2 8 9 6 89 143 181 310 14 26 29 52 33 57 4 6 23
39 42 75 20 36 45 81 57 100 11 19 24 42 28 50 4 8 31 56 60 107 29 51 53 96
53 102 0 5 4 11 8 13 5 2 39 59 78 128 38 69 74 134 81 145 7 11 16 27 20 35
4 8 29 52 55 98 26 46 48 85 48 87 0 3 11 28 24 58 14 29 27 64 30 78 3 13 10
42 15 64 15 62 22 124 22 200 -1 193 -41 317 -178 555 -33 58 -73 128 -88 155
-16 28 -46 82 -68 120 -22 39 -51 90 -65 115 -137 247 -178 319 -193 341 -10
14 -16 28 -13 31 2 3 -2 11 -11 18 -8 7 -15 16 -15 21 0 5 -11 26 -23 47 -22
34 -49 81 -115 202 -14 25 -28 50 -32 55 -4 6 -21 35 -37 65 -46 84 -82 148
-123 220 -21 36 -59 103 -85 150 -26 47 -58 103 -70 125 -13 22 -44 78 -70
125 -46 84 -64 113 -121 199 -37 56 -134 155 -199 203 -98 71 -256 139 -360
154 -16 2 -37 7 -45 10 -14 6 -2455 15 -2462 9z"/>
</g>
</svg>
